<svg xmlns="http://www.w3.org/2000/svg" fill="none" viewBox="0 0 143.38901 143.38818"><path d="M1.268934.634457c0 .3504-.284063.63446-.634467.63446S.000004.984857.000004.634457c0-.35041.284059-.63446.634463-.63446s.634467.28405.634467.63446Zm17.76497 0c0 .3504-.2841.63446-.6345.63446-.3504 0-.6344-.28406-.6344-.63446 0-.35041.284-.63446.6344-.63446s.6345.28405.6345.63446zm17.7649 0c0 .3504-.284.63446-.6344.63446s-.6345-.28406-.6345-.63446c0-.35041.2841-.63446.6345-.63446.3504 0 .6344.28405.6344.63446zm17.765 0c0 .3504-.284.63446-.6345.63446-.3504 0-.6344-.28406-.6344-.63446 0-.35041.284-.63446.6344-.63446.3505 0 .6345.28405.6345.63446zm17.765 0c0 .3504-.2841.63446-.6345.63446-.3504 0-.6345-.28406-.6345-.63446 0-.35041.2841-.63446.6345-.63446.3504 0 .6345.28405.6345.63446zm17.7649 0c0 .3504-.284.63446-.6344.63446s-.6345-.28406-.6345-.63446c0-.35041.2841-.63446.6345-.63446.3504 0 .6344.28405.6344.63446zm17.765296 0c0 .3504-.284.63446-.635.63446-.35 0-.634-.28406-.634-.63446 0-.35041.284-.63446.634-.63446.351 0 .635.28405.635.63446zm17.765 0c0 .3504-.284.63446-.635.63446-.35 0-.634-.28406-.634-.63446 0-.35041.284-.63446.634-.63446.351 0 .635.28405.635.63446zM1.268934 18.399387c0 .3504-.284063.6345-.634467.6345s-.634463-.2841-.634463-.6345c0-.3504.284059-.6344.634463-.6344s.634467.284.634467.6344zm17.76497 0c0 .3504-.2841.6345-.6345.6345-.3504 0-.6344-.2841-.6344-.6345 0-.3504.284-.6344.6344-.6344s.6345.284.6345.6344zm17.7649 0c0 .3504-.284.6345-.6344.6345s-.6345-.2841-.6345-.6345c0-.3504.2841-.6344.6345-.6344.3504 0 .6344.284.6344.6344zm17.765 0c0 .3504-.284.6345-.6345.6345-.3504 0-.6344-.2841-.6344-.6345 0-.3504.284-.6344.6344-.6344.3505 0 .6345.284.6345.6344zm17.765 0c0 .3504-.2841.6345-.6345.6345-.3504 0-.6345-.2841-.6345-.6345 0-.3504.2841-.6344.6345-.6344.3504 0 .6345.284.6345.6344zm17.7649 0c0 .3504-.284.6345-.6344.6345s-.6345-.2841-.6345-.6345c0-.3504.2841-.6344.6345-.6344.3504 0 .6344.284.6344.6344zm17.765296 0c0 .3504-.284.6345-.635.6345-.35 0-.634-.2841-.634-.6345 0-.3504.284-.6344.634-.6344.351 0 .635.284.635.6344zm17.765 0c0 .3504-.284.6345-.635.6345-.35 0-.634-.2841-.634-.6345 0-.3504.284-.6344.634-.6344.351 0 .635.284.635.6344zm-124.355066 17.765c0 .3504-.284063.6345-.634467.6345s-.634463-.2841-.634463-.6345c0-.3504.284059-.6345.634463-.6345s.634467.2841.634467.6345zm17.76497 0c0 .3504-.2841.6345-.6345.6345-.3504 0-.6344-.2841-.6344-.6345 0-.3504.284-.6345.6344-.6345s.6345.2841.6345.6345zm17.7649 0c0 .3504-.284.6345-.6344.6345s-.6345-.2841-.6345-.6345c0-.3504.2841-.6345.6345-.6345.3504 0 .6344.2841.6344.6345zm17.765 0c0 .3504-.284.6345-.6345.6345-.3504 0-.6344-.2841-.6344-.6345 0-.3504.284-.6345.6344-.6345.3505 0 .6345.2841.6345.6345zm17.765 0c0 .3504-.2841.6345-.6345.6345-.3504 0-.6345-.2841-.6345-.6345 0-.3504.2841-.6345.6345-.6345.3504 0 .6345.2841.6345.6345zm17.7649 0c0 .3504-.284.6345-.6344.6345s-.6345-.2841-.6345-.6345c0-.3504.2841-.6345.6345-.6345.3504 0 .6344.2841.6344.6345zm17.765296 0c0 .3504-.284.6345-.635.6345-.35 0-.634-.2841-.634-.6345 0-.3504.284-.6345.634-.6345.351 0 .635.2841.635.6345zm17.765 0c0 .3504-.284.6345-.635.6345-.35 0-.634-.2841-.634-.6345 0-.3504.284-.6345.634-.6345.351 0 .635.2841.635.6345zm-124.355066 17.765c0 .3504-.284063.6344-.634467.6344s-.634463-.284-.634463-.6344c0-.3505.284059-.6345.634463-.6345s.634467.284.634467.6345zm17.76497 0c0 .3504-.2841.6344-.6345.6344-.3504 0-.6344-.284-.6344-.6344 0-.3505.284-.6345.6344-.6345s.6345.284.6345.6345zm17.7649 0c0 .3504-.284.6344-.6344.6344s-.6345-.284-.6345-.6344c0-.3505.2841-.6345.6345-.6345.3504 0 .6344.284.6344.6345zm17.765 0c0 .3504-.284.6344-.6345.6344-.3504 0-.6344-.284-.6344-.6344 0-.3505.284-.6345.6344-.6345.3505 0 .6345.284.6345.6345zm17.765 0c0 .3504-.2841.6344-.6345.6344-.3504 0-.6345-.284-.6345-.6344 0-.3505.2841-.6345.6345-.6345.3504 0 .6345.284.6345.6345zm17.7649 0c0 .3504-.284.6344-.6344.6344s-.6345-.284-.6345-.6344c0-.3505.2841-.6345.6345-.6345.3504 0 .6344.284.6344.6345zm17.765296 0c0 .3504-.284.6344-.635.6344-.35 0-.634-.284-.634-.6344 0-.3505.284-.6345.634-.6345.351 0 .635.284.635.6345zm17.765 0c0 .3504-.284.6344-.635.6344-.35 0-.634-.284-.634-.6344 0-.3505.284-.6345.634-.6345.351 0 .635.284.635.6345zM1.268934 71.694287c0 .3504-.284063.6345-.634467.6345s-.634463-.2841-.634463-.6345c0-.3504.284059-.6345.634463-.6345s.634467.2841.634467.6345zm17.76497 0c0 .3504-.2841.6345-.6345.6345-.3504 0-.6344-.2841-.6344-.6345 0-.3504.284-.6345.6344-.6345s.6345.2841.6345.6345zm17.7649 0c0 .3504-.284.6345-.6344.6345s-.6345-.2841-.6345-.6345c0-.3504.2841-.6345.6345-.6345.3504 0 .6344.2841.6344.6345zm17.765 0c0 .3504-.284.6345-.6345.6345-.3504 0-.6344-.2841-.6344-.6345 0-.3504.284-.6345.6344-.6345.3505 0 .6345.2841.6345.6345zm17.765 0c0 .3504-.2841.6345-.6345.6345-.3504 0-.6345-.2841-.6345-.6345 0-.3504.2841-.6345.6345-.6345.3504 0 .6345.2841.6345.6345zm17.7649 0c0 .3504-.284.6345-.6344.6345s-.6345-.2841-.6345-.6345c0-.3504.2841-.6345.6345-.6345.3504 0 .6344.2841.6344.6345zm17.765296 0c0 .3504-.284.6345-.635.6345-.35 0-.634-.2841-.634-.6345 0-.3504.284-.6345.634-.6345.351 0 .635.2841.635.6345zm17.765 0c0 .3504-.284.6345-.635.6345-.35 0-.634-.2841-.634-.6345 0-.3504.284-.6345.634-.6345.351 0 .635.2841.635.6345zm-124.355066 17.765c0 .3504-.284063.6344-.634467.6344s-.634463-.284-.634463-.6344.284059-.6345.634463-.6345.634467.2841.634467.6345zm17.76497 0c0 .3504-.2841.6344-.6345.6344-.3504 0-.6344-.284-.6344-.6344s.284-.6345.6344-.6345.6345.2841.6345.6345zm17.7649 0c0 .3504-.284.6344-.6344.6344s-.6345-.284-.6345-.6344.2841-.6345.6345-.6345c.3504 0 .6344.2841.6344.6345zm17.765 0c0 .3504-.284.6344-.6345.6344-.3504 0-.6344-.284-.6344-.6344s.284-.6345.6344-.6345c.3505 0 .6345.2841.6345.6345zm17.765 0c0 .3504-.2841.6344-.6345.6344-.3504 0-.6345-.284-.6345-.6344s.2841-.6345.6345-.6345c.3504 0 .6345.2841.6345.6345zm17.7649 0c0 .3504-.284.6344-.6344.6344s-.6345-.284-.6345-.6344.2841-.6345.6345-.6345c.3504 0 .6344.2841.6344.6345zm17.765296 0c0 .3504-.284.6344-.635.6344-.35 0-.634-.284-.634-.6344s.284-.6345.634-.6345c.351 0 .635.2841.635.6345zm17.765 0c0 .3504-.284.6344-.635.6344-.35 0-.634-.284-.634-.6344s.284-.6345.634-.6345c.351 0 .635.2841.635.6345zM1.268934 107.22419c0 .35-.284063.634-.634467.634s-.634463-.284-.634463-.634c0-.35.284059-.634.634463-.634s.634467.284.634467.634zm17.76497 0c0 .35-.2841.634-.6345.634-.3504 0-.6344-.284-.6344-.634 0-.35.284-.634.6344-.634s.6345.284.6345.634zm17.7649 0c0 .35-.284.634-.6344.634s-.6345-.284-.6345-.634c0-.35.2841-.634.6345-.634.3504 0 .6344.284.6344.634zm17.765 0c0 .35-.284.634-.6345.634-.3504 0-.6344-.284-.6344-.634 0-.35.284-.634.6344-.634.3505 0 .6345.284.6345.634zm17.765 0c0 .35-.2841.634-.6345.634-.3504 0-.6345-.284-.6345-.634 0-.35.2841-.634.6345-.634.3504 0 .6345.284.6345.634zm17.7649 0c0 .35-.284.634-.6344.634s-.6345-.284-.6345-.634c0-.35.2841-.634.6345-.634.3504 0 .6344.284.6344.634zm17.765296 0c0 .35-.284.634-.635.634-.35 0-.634-.284-.634-.634 0-.35.284-.634.634-.634.351 0 .635.284.635.634zm17.765 0c0 .35-.284.634-.635.634-.35 0-.634-.284-.634-.634 0-.35.284-.634.634-.634.351 0 .635.284.635.634zm-124.355066 17.765c0 .35-.284063.634-.634467.634s-.634463-.284-.634463-.634c0-.35.284059-.634.634463-.634s.634467.284.634467.634zm17.76497 0c0 .35-.2841.634-.6345.634-.3504 0-.6344-.284-.6344-.634 0-.35.284-.634.6344-.634s.6345.284.6345.634zm17.7649 0c0 .35-.284.634-.6344.634s-.6345-.284-.6345-.634c0-.35.2841-.634.6345-.634.3504 0 .6344.284.6344.634zm17.765 0c0 .35-.284.634-.6345.634-.3504 0-.6344-.284-.6344-.634 0-.35.284-.634.6344-.634.3505 0 .6345.284.6345.634zm17.765 0c0 .35-.2841.634-.6345.634-.3504 0-.6345-.284-.6345-.634 0-.35.2841-.634.6345-.634.3504 0 .6345.284.6345.634zm17.7649 0c0 .35-.284.634-.6344.634s-.6345-.284-.6345-.634c0-.35.2841-.634.6345-.634.3504 0 .6344.284.6344.634zm17.765296 0c0 .35-.284.634-.635.634-.35 0-.634-.284-.634-.634 0-.35.284-.634.634-.634.351 0 .635.284.635.634zm17.765 0c0 .35-.284.634-.635.634-.35 0-.634-.284-.634-.634 0-.35.284-.634.634-.634.351 0 .635.284.635.634z" fill="#d1d5db"/></svg>